<svg width="76" height="15" viewBox="0 0 76 15" fill="none" xmlns="http://www.w3.org/2000/svg">
<g clip-path="url(#clip0_7_8)">
<rect width="76" height="15" fill="white"/>
<path d="M4.44 11.1793C3.896 11.1793 3.404 11.0553 2.964 10.8073C2.524 10.5513 2.172 10.1873 1.908 9.7153C1.652 9.2353 1.524 8.6513 1.524 7.9633C1.524 7.2753 1.652 6.6953 1.908 6.2233C2.164 5.7433 2.512 5.3793 2.952 5.1313C3.392 4.8833 3.888 4.7593 4.44 4.7593C5.04 4.7593 5.576 4.8953 6.048 5.1673C6.528 5.4313 6.904 5.8073 7.176 6.2953C7.448 6.7753 7.584 7.3313 7.584 7.9633C7.584 8.6033 7.448 9.1633 7.176 9.6433C6.904 10.1233 6.528 10.4993 6.048 10.7713C5.576 11.0433 5.04 11.1793 4.44 11.1793ZM1.188 13.4473V4.8193H2.004V6.7153L1.92 7.9753L2.04 9.2473V13.4473H1.188ZM4.38 10.4233C4.828 10.4233 5.228 10.3233 5.58 10.1233C5.932 9.9153 6.212 9.6273 6.42 9.2593C6.628 8.8833 6.732 8.4513 6.732 7.9633C6.732 7.4753 6.628 7.0473 6.42 6.6793C6.212 6.3113 5.932 6.0233 5.58 5.8153C5.228 5.6073 4.828 5.5033 4.38 5.5033C3.932 5.5033 3.528 5.6073 3.168 5.8153C2.816 6.0233 2.536 6.3113 2.328 6.6793C2.128 7.0473 2.028 7.4753 2.028 7.9633C2.028 8.4513 2.128 8.8833 2.328 9.2593C2.536 9.6273 2.816 9.9153 3.168 10.1233C3.528 10.3233 3.932 10.4233 4.38 10.4233ZM9.32081 11.1193V4.8193H10.1368V6.5353L10.0528 6.2353C10.2288 5.7553 10.5248 5.3913 10.9408 5.1433C11.3568 4.8873 11.8728 4.7593 12.4888 4.7593V5.5873C12.4568 5.5873 12.4248 5.5873 12.3928 5.5873C12.3608 5.5793 12.3288 5.5753 12.2968 5.5753C11.6328 5.5753 11.1128 5.7793 10.7368 6.1873C10.3608 6.5873 10.1728 7.1593 10.1728 7.9033V11.1193H9.32081ZM16.5529 11.1793C15.9449 11.1793 15.3969 11.0433 14.9089 10.7713C14.4289 10.4913 14.0489 10.1113 13.7689 9.6313C13.4889 9.1433 13.3489 8.5873 13.3489 7.9633C13.3489 7.3313 13.4889 6.7753 13.7689 6.2953C14.0489 5.8153 14.4289 5.4393 14.9089 5.1673C15.3889 4.8953 15.9369 4.7593 16.5529 4.7593C17.1769 4.7593 17.7289 4.8953 18.2089 5.1673C18.6969 5.4393 19.0769 5.8153 19.3489 6.2953C19.6289 6.7753 19.7689 7.3313 19.7689 7.9633C19.7689 8.5873 19.6289 9.1433 19.3489 9.6313C19.0769 10.1113 18.6969 10.4913 18.2089 10.7713C17.7209 11.0433 17.1689 11.1793 16.5529 11.1793ZM16.5529 10.4233C17.0089 10.4233 17.4129 10.3233 17.7649 10.1233C18.1169 9.9153 18.3929 9.6273 18.5929 9.2593C18.8009 8.8833 18.9049 8.4513 18.9049 7.9633C18.9049 7.4673 18.8009 7.0353 18.5929 6.6673C18.3929 6.2993 18.1169 6.0153 17.7649 5.8153C17.4129 5.6073 17.0129 5.5033 16.5649 5.5033C16.1169 5.5033 15.7169 5.6073 15.3649 5.8153C15.0129 6.0153 14.7329 6.2993 14.5249 6.6673C14.3169 7.0353 14.2129 7.4673 14.2129 7.9633C14.2129 8.4513 14.3169 8.8833 14.5249 9.2593C14.7329 9.6273 15.0129 9.9153 15.3649 10.1233C15.7169 10.3233 16.1129 10.4233 16.5529 10.4233ZM24.0163 11.1793C23.4163 11.1793 22.8763 11.0433 22.3963 10.7713C21.9243 10.4993 21.5523 10.1233 21.2803 9.6433C21.0083 9.1553 20.8723 8.5953 20.8723 7.9633C20.8723 7.3233 21.0083 6.7633 21.2803 6.2833C21.5523 5.8033 21.9243 5.4313 22.3963 5.1673C22.8763 4.8953 23.4163 4.7593 24.0163 4.7593C24.5683 4.7593 25.0603 4.8833 25.4923 5.1313C25.9323 5.3793 26.2803 5.7433 26.5363 6.2233C26.8003 6.6953 26.9323 7.2753 26.9323 7.9633C26.9323 8.6433 26.8043 9.2233 26.5483 9.7033C26.2923 10.1833 25.9443 10.5513 25.5043 10.8073C25.0723 11.0553 24.5763 11.1793 24.0163 11.1793ZM24.0763 10.4233C24.5243 10.4233 24.9243 10.3233 25.2763 10.1233C25.6363 9.9153 25.9163 9.6273 26.1163 9.2593C26.3243 8.8833 26.4283 8.4513 26.4283 7.9633C26.4283 7.4673 26.3243 7.0353 26.1163 6.6673C25.9163 6.2993 25.6363 6.0153 25.2763 5.8153C24.9243 5.6073 24.5243 5.5033 24.0763 5.5033C23.6363 5.5033 23.2403 5.6073 22.8883 5.8153C22.5363 6.0153 22.2563 6.2993 22.0483 6.6673C21.8403 7.0353 21.7363 7.4673 21.7363 7.9633C21.7363 8.4513 21.8403 8.8833 22.0483 9.2593C22.2563 9.6273 22.5363 9.9153 22.8883 10.1233C23.2403 10.3233 23.6363 10.4233 24.0763 10.4233ZM26.4523 11.1193V9.2233L26.5363 7.9513L26.4163 6.6793V2.2153H27.2683V11.1193H26.4523ZM32.2451 11.1793C31.7091 11.1793 31.2411 11.0793 30.8411 10.8793C30.4411 10.6793 30.1291 10.3793 29.9051 9.9793C29.6891 9.5793 29.5811 9.0793 29.5811 8.4793V4.8193H30.4331V8.3833C30.4331 9.0553 30.5971 9.5633 30.9251 9.9073C31.2611 10.2433 31.7291 10.4113 32.3291 10.4113C32.7691 10.4113 33.1491 10.3233 33.4691 10.1473C33.7971 9.9633 34.0451 9.6993 34.2131 9.3553C34.3891 9.0113 34.4771 8.5993 34.4771 8.1193V4.8193H35.3291V11.1193H34.5131V9.3913L34.6451 9.7033C34.4451 10.1673 34.1331 10.5313 33.7091 10.7953C33.2931 11.0513 32.8051 11.1793 32.2451 11.1793ZM40.3196 11.1793C39.6956 11.1793 39.1356 11.0433 38.6396 10.7713C38.1516 10.4913 37.7676 10.1113 37.4876 9.6313C37.2076 9.1433 37.0676 8.5873 37.0676 7.9633C37.0676 7.3313 37.2076 6.7753 37.4876 6.2953C37.7676 5.8153 38.1516 5.4393 38.6396 5.1673C39.1356 4.8953 39.6956 4.7593 40.3196 4.7593C40.8556 4.7593 41.3396 4.8633 41.7716 5.0713C42.2036 5.2793 42.5436 5.5913 42.7916 6.0073L42.1556 6.4393C41.9396 6.1193 41.6716 5.8833 41.3516 5.7313C41.0316 5.5793 40.6836 5.5033 40.3076 5.5033C39.8596 5.5033 39.4556 5.6073 39.0956 5.8153C38.7356 6.0153 38.4516 6.2993 38.2436 6.6673C38.0356 7.0353 37.9316 7.4673 37.9316 7.9633C37.9316 8.4593 38.0356 8.8913 38.2436 9.2593C38.4516 9.6273 38.7356 9.9153 39.0956 10.1233C39.4556 10.3233 39.8596 10.4233 40.3076 10.4233C40.6836 10.4233 41.0316 10.3473 41.3516 10.1953C41.6716 10.0433 41.9396 9.8113 42.1556 9.4993L42.7916 9.9313C42.5436 10.3393 42.2036 10.6513 41.7716 10.8673C41.3396 11.0753 40.8556 11.1793 40.3196 11.1793ZM46.5277 11.1793C45.9357 11.1793 45.4797 11.0193 45.1597 10.6993C44.8397 10.3793 44.6797 9.9273 44.6797 9.3433V3.4273H45.5317V9.2953C45.5317 9.6633 45.6237 9.9473 45.8077 10.1473C45.9997 10.3473 46.2717 10.4473 46.6237 10.4473C46.9997 10.4473 47.3117 10.3393 47.5597 10.1233L47.8597 10.7353C47.6917 10.8873 47.4877 10.9993 47.2477 11.0713C47.0157 11.1433 46.7757 11.1793 46.5277 11.1793ZM43.5517 5.5273V4.8193H47.4517V5.5273H43.5517ZM51.1027 11.1793C50.5827 11.1793 50.0907 11.1073 49.6267 10.9633C49.1627 10.8113 48.7987 10.6233 48.5347 10.3993L48.9187 9.7273C49.1747 9.9193 49.5027 10.0873 49.9027 10.2313C50.3027 10.3673 50.7227 10.4353 51.1627 10.4353C51.7627 10.4353 52.1947 10.3433 52.4587 10.1593C52.7227 9.9673 52.8547 9.7153 52.8547 9.4033C52.8547 9.1713 52.7787 8.9913 52.6267 8.8633C52.4827 8.7273 52.2907 8.6273 52.0507 8.5633C51.8107 8.4913 51.5427 8.4313 51.2467 8.3833C50.9507 8.3353 50.6547 8.2793 50.3587 8.2153C50.0707 8.1513 49.8067 8.0593 49.5667 7.9393C49.3267 7.8113 49.1307 7.6393 48.9787 7.4233C48.8347 7.2073 48.7627 6.9193 48.7627 6.5593C48.7627 6.2153 48.8587 5.9073 49.0507 5.6353C49.2427 5.3633 49.5227 5.1513 49.8907 4.9993C50.2667 4.8393 50.7227 4.7593 51.2587 4.7593C51.6667 4.7593 52.0747 4.8153 52.4827 4.9273C52.8907 5.0313 53.2267 5.1713 53.4907 5.3473L53.1187 6.0313C52.8387 5.8393 52.5387 5.7033 52.2187 5.6233C51.8987 5.5353 51.5787 5.4913 51.2587 5.4913C50.6907 5.4913 50.2707 5.5913 49.9987 5.7913C49.7347 5.9833 49.6027 6.2313 49.6027 6.5353C49.6027 6.7753 49.6747 6.9633 49.8187 7.0993C49.9707 7.2353 50.1667 7.3433 50.4067 7.4233C50.6547 7.4953 50.9227 7.5553 51.2107 7.6033C51.5067 7.6513 51.7987 7.7113 52.0867 7.7833C52.3827 7.8473 52.6507 7.9393 52.8907 8.0593C53.1387 8.1713 53.3347 8.3353 53.4787 8.5513C53.6307 8.7593 53.7067 9.0353 53.7067 9.3793C53.7067 9.7473 53.6027 10.0673 53.3947 10.3393C53.1947 10.6033 52.8987 10.8113 52.5067 10.9633C52.1227 11.1073 51.6547 11.1793 51.1027 11.1793Z" fill="#305CCB"/>
<path d="M65.4714 11.1793C64.9354 11.1793 64.4674 11.0793 64.0674 10.8793C63.6674 10.6793 63.3554 10.3793 63.1314 9.9793C62.9154 9.5793 62.8074 9.0793 62.8074 8.4793V4.8193H63.6594V8.3833C63.6594 9.0553 63.8234 9.5633 64.1514 9.9073C64.4874 10.2433 64.9554 10.4113 65.5554 10.4113C65.9954 10.4113 66.3754 10.3233 66.6954 10.1473C67.0234 9.9633 67.2714 9.6993 67.4394 9.3553C67.6154 9.0113 67.7034 8.5993 67.7034 8.1193V4.8193H68.5554V11.1193H67.7394V9.3913L67.8714 9.7033C67.6714 10.1673 67.3594 10.5313 66.9354 10.7953C66.5194 11.0513 66.0314 11.1793 65.4714 11.1793ZM72.6219 11.1793C72.1019 11.1793 71.6099 11.1073 71.1459 10.9633C70.6819 10.8113 70.3179 10.6233 70.0539 10.3993L70.4379 9.7273C70.6939 9.9193 71.0219 10.0873 71.4219 10.2313C71.8219 10.3673 72.2419 10.4353 72.6819 10.4353C73.2819 10.4353 73.7139 10.3433 73.9779 10.1593C74.2419 9.9673 74.3739 9.7153 74.3739 9.4033C74.3739 9.1713 74.2979 8.9913 74.1459 8.8633C74.0019 8.7273 73.8099 8.6273 73.5699 8.5633C73.3299 8.4913 73.0619 8.4313 72.7659 8.3833C72.4699 8.3353 72.1739 8.2793 71.8779 8.2153C71.5899 8.1513 71.3259 8.0593 71.0859 7.9393C70.8459 7.8113 70.6499 7.6393 70.4979 7.4233C70.3539 7.2073 70.2819 6.9193 70.2819 6.5593C70.2819 6.2153 70.3779 5.9073 70.5699 5.6353C70.7619 5.3633 71.0419 5.1513 71.4099 4.9993C71.7859 4.8393 72.2419 4.7593 72.7779 4.7593C73.1859 4.7593 73.5939 4.8153 74.0019 4.9273C74.4099 5.0313 74.7459 5.1713 75.0099 5.3473L74.6379 6.0313C74.3579 5.8393 74.0579 5.7033 73.7379 5.6233C73.4179 5.5353 73.0979 5.4913 72.7779 5.4913C72.2099 5.4913 71.7899 5.5913 71.5179 5.7913C71.2539 5.9833 71.1219 6.2313 71.1219 6.5353C71.1219 6.7753 71.1939 6.9633 71.3379 7.0993C71.4899 7.2353 71.6859 7.3433 71.9259 7.4233C72.1739 7.4953 72.4419 7.5553 72.7299 7.6033C73.0259 7.6513 73.3179 7.7113 73.6059 7.7833C73.9019 7.8473 74.1699 7.9393 74.4099 8.0593C74.6579 8.1713 74.8539 8.3353 74.9979 8.5513C75.1499 8.7593 75.2259 9.0353 75.2259 9.3793C75.2259 9.7473 75.1219 10.0673 74.9139 10.3393C74.7139 10.6033 74.4179 10.8113 74.0259 10.9633C73.6419 11.1073 73.1739 11.1793 72.6219 11.1793Z" fill="#305CCB"/>
<path d="M61.29 11.1158V2.73692H57.833C56.3174 2.73692 55.5596 3.40684 55.5596 4.74668C55.5596 5.90684 56.3818 6.7291 58.0263 7.21348L55.1963 11.1158H56.04L58.8232 7.23106V6.81504C57.1045 6.56113 56.2451 5.88731 56.2451 4.79356C56.2451 3.78574 56.8076 3.28184 57.9326 3.28184H60.6748V11.1158H61.29Z" fill="#A4B5DF"/>
</g>
<defs>
<clipPath id="clip0_7_8">
<rect width="76" height="15" fill="white"/>
</clipPath>
</defs>
</svg>
